<?xml version="1.0" standalone="no"?>
<!DOCTYPE svg PUBLIC "-//W3C//DTD SVG 20010904//EN"
 "http://www.w3.org/TR/2001/REC-SVG-20010904/DTD/svg10.dtd">
<svg version="1.0" xmlns="http://www.w3.org/2000/svg"
 width="16.000000pt" height="16.000000pt" viewBox="0 0 16.000000 16.000000"
 preserveAspectRatio="xMidYMid meet">
<metadata>
Created by potrace 1.11, written by Peter Selinger 2001-2013
</metadata>
<g transform="translate(0.000000,16.000000) scale(0.006154,-0.006154)"
fill="#000000" stroke="none">
<path d="M180 2573 c-61 -26 -117 -80 -147 -141 l-28 -57 0 -1070 c0 -866 3
-1077 13 -1108 23 -63 83 -129 148 -162 l59 -30 1075 0 1075 0 50 23 c59 27
120 90 149 152 21 45 21 53 23 1110 2 1040 1 1066 -18 1117 -25 64 -80 125
-143 158 l-49 25 -1086 -1 c-947 -1 -1090 -3 -1121 -16z m1338 -558 c122 -29
201 -86 241 -175 31 -67 29 -198 -3 -265 -22 -47 -82 -113 -134 -147 -22 -15
-21 -16 38 -37 89 -33 158 -93 200 -176 35 -67 35 -70 35 -194 0 -120 -1 -129
-30 -186 -58 -116 -166 -198 -311 -235 -69 -18 -111 -20 -411 -20 l-333 0 0
725 0 725 323 0 c249 0 336 -4 385 -15z"/>
<path d="M1000 1653 l0 -206 194 6 c160 6 205 11 249 27 93 35 127 87 127 193
0 126 -56 166 -250 178 -69 4 -169 8 -222 9 l-98 0 0 -207z"/>
<path d="M1000 1015 l0 -268 213 7 c117 4 238 13 269 20 76 18 143 59 176 108
23 36 27 54 30 130 5 106 -16 160 -79 203 -64 45 -124 55 -376 62 l-233 6 0
-268z"/>
</g>
</svg>
